<?xml version="1.0" standalone="no"?>
<!DOCTYPE svg PUBLIC "-//W3C//DTD SVG 20010904//EN"
 "http://www.w3.org/TR/2001/REC-SVG-20010904/DTD/svg10.dtd">
<svg version="1.0" xmlns="http://www.w3.org/2000/svg"
 width="16.000000pt" height="16.000000pt" viewBox="0 0 16.000000 16.000000"
 preserveAspectRatio="xMidYMid meet">
<metadata>
Created by potrace 1.11, written by Peter Selinger 2001-2013
</metadata>
<g transform="translate(0.000000,16.000000) scale(0.003390,-0.003390)"
fill="#000000" stroke="none">
<path d="M1965 3399 c-130 -15 -253 -77 -345 -174 -48 -51 -41 -51 27 1 122
93 304 105 453 29 124 -63 220 -213 225 -354 4 -92 -71 -256 -211 -466 -46
-70 -84 -129 -84 -131 0 -19 193 29 257 64 92 49 195 161 237 257 50 112 62
254 31 369 -69 259 -325 435 -590 405z"/>
<path d="M1877 3294 c-1 -1 -24 -4 -51 -7 -112 -14 -248 -111 -295 -211 -49
-106 -61 -266 -25 -351 50 -121 145 -209 267 -247 57 -18 127 -24 127 -12 0 4
-20 38 -44 78 -25 39 -64 112 -88 161 -39 81 -43 97 -42 165 0 92 26 150 95
215 63 59 108 77 199 78 89 2 161 -27 223 -88 45 -46 39 -21 -15 52 -45 62
-85 93 -162 129 -47 21 -178 48 -189 38z"/>
<path d="M1951 3047 c-42 -13 -98 -68 -118 -116 -20 -46 -18 -122 3 -167 18
-38 73 -90 113 -106 71 -29 189 4 235 66 100 131 15 325 -146 331 -29 1 -68
-3 -87 -8z"/>
<path d="M1505 2670 c14 -50 74 -148 120 -196 42 -43 113 -94 167 -119 57 -26
189 -58 215 -53 9 2 -1 24 -32 71 -25 37 -49 67 -53 68 -4 1 -29 3 -57 5 -135
11 -250 80 -332 198 -22 33 -32 42 -28 26z"/>
<path d="M74 2289 c28 -174 140 -310 276 -336 105 -20 116 -20 216 -9 116 12
286 66 415 131 50 26 65 42 29 30 -24 -8 -268 -8 -320 -1 -19 3 -55 8 -80 11
-169 20 -389 97 -484 168 -56 42 -58 42 -52 6z"/>
<path d="M2088 2195 c-2 -1 -29 -5 -61 -9 -131 -14 -321 -99 -468 -211 -35
-27 -127 -101 -204 -165 -275 -229 -402 -309 -582 -370 -86 -28 -258 -60 -298
-54 -42 6 6 -15 70 -31 385 -95 633 -22 975 288 225 203 342 293 468 360 116
61 243 106 348 123 21 3 46 8 54 9 8 2 33 4 55 5 37 1 38 2 15 11 -48 20 -176
40 -272 44 -53 2 -98 2 -100 0z"/>
<path d="M1508 2105 c-2 -1 -37 -5 -78 -8 -178 -14 -298 -51 -525 -162 -231
-112 -288 -132 -440 -154 -56 -7 -200 -6 -264 3 -22 3 -41 1 -41 -3 0 -16 103
-123 155 -160 128 -93 266 -111 437 -55 46 15 160 69 203 96 94 61 165 111
322 229 101 76 207 153 238 171 30 18 55 35 55 38 0 5 -57 10 -62 5z"/>
<path d="M2025 1620 c0 -213 1 -230 17 -230 20 0 20 0 20 116 -1 95 -8 90 119
89 78 -1 86 1 81 17 -4 16 -17 18 -102 18 l-97 0 1 92 1 93 110 0 c61 0 116 4
123 8 32 21 3 27 -131 27 l-142 0 0 -230z"/>
<path d="M2359 1838 c0 -7 -1 -85 -1 -174 0 -132 3 -167 17 -197 49 -104 221
-109 279 -8 17 30 20 55 21 213 1 165 0 178 -17 178 -10 0 -18 -6 -19 -12 0
-7 -1 -87 -2 -178 -2 -138 -5 -169 -20 -191 -38 -56 -127 -67 -177 -21 -42 37
-46 63 -45 245 1 144 -1 157 -17 157 -10 0 -18 -6 -19 -12z"/>
<path d="M2779 1848 c-1 -2 -2 -105 -3 -230 -2 -214 -1 -228 16 -228 13 0 18
8 19 28 0 15 0 100 1 190 0 89 3 162 7 161 3 0 61 -85 129 -188 74 -114 131
-191 142 -194 23 -6 21 -32 21 263 1 217 2 200 -19 200 -16 0 -17 -15 -17
-195 0 -175 -1 -193 -15 -175 -8 11 -67 99 -130 195 -75 113 -121 174 -132
175 -10 0 -19 -1 -19 -2z"/>
<path d="M3275 1831 c-58 -34 -69 -64 -72 -185 -3 -127 6 -178 39 -213 44 -48
119 -61 183 -34 46 20 59 34 80 84 15 36 14 37 -5 37 -13 0 -24 -10 -30 -26
-26 -67 -103 -94 -171 -58 -45 23 -60 69 -60 185 0 120 16 164 70 186 65 27
124 4 160 -63 12 -23 21 -30 34 -25 17 6 16 9 -5 50 -14 26 -38 51 -58 62 -46
25 -125 25 -165 0z"/>
<path d="M3603 1620 c-1 -219 0 -230 18 -230 17 0 19 9 19 108 l0 107 87 -2
c49 -1 102 -2 118 -2 l31 -1 -1 -105 c-1 -95 0 -105 17 -105 10 0 18 6 19 13
1 17 1 419 0 435 -1 6 -9 12 -19 12 -16 0 -18 -11 -17 -105 0 -64 -4 -105 -10
-106 -12 -1 -194 -1 -212 0 -10 1 -13 29 -13 106 0 95 -2 105 -18 105 -18 0
-19 -13 -19 -230z"/>
<path d="M4117 1818 c-8 -18 -32 -82 -55 -143 -22 -60 -54 -148 -71 -193 -17
-46 -31 -86 -31 -88 0 -2 9 -4 19 -4 14 0 25 14 39 53 l20 52 76 3 c59 2 76 6
76 17 0 15 -15 17 -103 17 -32 0 -37 2 -32 16 4 9 25 68 47 131 l41 114 19
-54 c11 -30 28 -76 38 -104 10 -27 33 -90 50 -140 36 -100 41 -108 63 -103 12
2 4 34 -44 163 -105 283 -110 295 -124 295 -8 0 -20 -15 -28 -32z"/>
<path d="M4375 1620 c0 -146 4 -230 10 -231 34 -2 268 1 271 3 1 2 -1 9 -5 16
-6 9 -42 14 -122 15 l-114 2 -1 210 c-1 199 -2 210 -20 213 -19 3 -20 -6 -19
-228z"/>
</g>
</svg>
